<?xml version="1.0" encoding="UTF-8"?>
<svg id="_레이어_1" data-name="레이어_1" xmlns="http://www.w3.org/2000/svg" width="22.6mm" height="22.6mm" baseProfile="tiny" version="1.2" xmlns:inkscape="http://www.inkscape.org/namespaces/inkscape" xmlns:sodipodi="http://sodipodi.sourceforge.net/DTD/sodipodi-0.dtd" xmlns:svg="http://www.w3.org/2000/svg" viewBox="0 0 64.1 64.1">
  <!-- Generator: Adobe Illustrator 29.8.4, SVG Export Plug-In . SVG Version: 2.1.1 Build 6)  -->
  <sodipodi:namedview id="namedview8" bordercolor="#666666" borderopacity="1.0" inkscape:current-layer="g6874" inkscape:cx="7.0860489" inkscape:cy="35.183057" inkscape:deskcolor="#d1d1d1" inkscape:pagecheckerboard="0" inkscape:pageopacity="1" inkscape:showpageshadow="2" inkscape:window-height="826" inkscape:window-maximized="1" inkscape:window-width="1600" inkscape:window-x="0" inkscape:window-y="0" inkscape:zoom="6.0682618" pagecolor="#002b36" showgrid="false"/>
  <sodipodi:namedview id="namedview8" bordercolor="#666666" borderopacity="1.0" inkscape:current-layer="g6874" inkscape:cx="7.0860489" inkscape:cy="35.183057" inkscape:deskcolor="#d1d1d1" inkscape:pagecheckerboard="0" inkscape:pageopacity="1" inkscape:showpageshadow="2" inkscape:window-height="826" inkscape:window-maximized="1" inkscape:window-width="1600" inkscape:window-x="0" inkscape:window-y="0" inkscape:zoom="6.0682618" pagecolor="#002b36" showgrid="false"/>
  <sodipodi:namedview id="namedview8" bordercolor="#666666" borderopacity="1.0" inkscape:current-layer="g6874" inkscape:cx="7.0860489" inkscape:cy="35.183057" inkscape:deskcolor="#d1d1d1" inkscape:pagecheckerboard="0" inkscape:pageopacity="1" inkscape:showpageshadow="2" inkscape:window-height="826" inkscape:window-maximized="1" inkscape:window-width="1600" inkscape:window-x="0" inkscape:window-y="0" inkscape:zoom="6.0682618" pagecolor="#002b36" showgrid="false"/>
  <sodipodi:namedview id="namedview8" bordercolor="#666666" borderopacity="1.0" inkscape:current-layer="g6874" inkscape:cx="7.0860489" inkscape:cy="35.183057" inkscape:deskcolor="#d1d1d1" inkscape:pagecheckerboard="0" inkscape:pageopacity="1" inkscape:showpageshadow="2" inkscape:window-height="826" inkscape:window-maximized="1" inkscape:window-width="1600" inkscape:window-x="0" inkscape:window-y="0" inkscape:zoom="6.0682618" pagecolor="#002b36" showgrid="false"/>
  <circle cx="32" cy="32" r="19.8" fill="none" stroke="#fff" stroke-miterlimit="10" stroke-width="2"/>
  <circle cx="32" cy="32" r="15.6" fill="none" stroke="#fff" stroke-miterlimit="10" stroke-width="2"/>
  <circle cx="32" cy="32" r="11.3" fill="none" stroke="#fff" stroke-miterlimit="10" stroke-width="2"/>
  <path d="M32,5c-14.9,0-27,12.1-27,27s12.1,27,27,27,27-12.1,27-27S46.9,5,32,5ZM11.7,17.8c4.4-5.8,11-9.6,18.2-10.5.6-.1,1.2.1,1.7.5.5.4.7,1,.7,1.6l.2,13.1c0,2.1-1.1,4.1-2.9,5.2-1.4.8-3,1-4.5.5-.5-.1-1-.3-1.5-.6l-8.3-4.9h0c-1.1-.7-2.9-1.7-2.9-1.7-.5-.3-.9-.8-1-1.4-.1-.6,0-1.2.4-1.7ZM32.3,51.4h0c0,1.2,0,3.3,0,3.3,0,.6-.3,1.2-.7,1.6-.5.4-1,.6-1.7.5-7.2-.9-13.8-4.7-18.2-10.5-.4-.5-.5-1.1-.4-1.7.1-.6.5-1.1,1-1.4l11.3-6.7c1.8-1.1,4.1-1.1,5.9,0,1.4.8,2.3,2.1,2.7,3.6.1.5.2,1.1.2,1.7v9.6ZM53.3,43.7c-.6.2-1.2.1-1.7-.2l-11.4-6.4c-1.8-1-3-3-3-5.1s.6-3.1,1.8-4.2c.4-.4.8-.7,1.3-1l8.4-4.7h0c1.1-.6,2.9-1.6,2.9-1.6.5-.3,1.2-.4,1.7-.2.6.2,1,.6,1.3,1.2,2.8,6.7,2.8,14.3,0,21-.2.6-.7,1-1.3,1.2Z" fill="#e2e1e1"/>
</svg>